<?xml version="1.0" encoding="iso-8859-1"?>
<!-- Generator: Adobe Illustrator 18.1.1, SVG Export Plug-In . SVG Version: 6.00 Build 0)  -->
<svg version="1.1" id="Layer_1" xmlns="http://www.w3.org/2000/svg" xmlns:xlink="http://www.w3.org/1999/xlink" x="0px" y="0px"
	 viewBox="0 0 37.73 35.844" style="enable-background:new 0 0 37.73 35.844;" xml:space="preserve">
<path style="fill:#76CC1E;" d="M0.52,19.319c3.4,1.5,6.1,2.6,9.5,4.1c0.2,0.1,0.5,0.1,0.7-0.1c8.2-7.7,16.2-15.2,24.4-22.8
	c1.1-1,3.1-0.4,2.5,0.5c-14.5,16.7-22.1,26.5-26.8,34.3c-0.4,0.7-1.2,0.7-1.7,0c-1-1.6-2.6-4.2-2.6-4.2c-3.3-5.7-3.4-6-6.5-11.4
	C-0.08,19.319,0.22,19.119,0.52,19.319L0.52,19.319z"/>
</svg>
