<?xml version="1.0" encoding="iso-8859-1"?>
<!-- Generator: Adobe Illustrator 18.1.1, SVG Export Plug-In . SVG Version: 6.00 Build 0)  -->
<svg version="1.1" id="Layer_1" xmlns="http://www.w3.org/2000/svg" xmlns:xlink="http://www.w3.org/1999/xlink" x="0px" y="0px"
	 viewBox="0 0 36.167 36.167" style="enable-background:new 0 0 36.167 36.167;" xml:space="preserve">
<path style="fill:#FFFFFF;" d="M18.083,0C8.096,0,0,8.096,0,18.083s8.096,18.083,18.083,18.083c9.987,0,18.083-8.096,18.083-18.083
	S28.071,0,18.083,0z M22.864,29.079c-1.539-0.116-11.57-2.526-15.794-14.458c-0.855-2.502,0.202-6.537,3.064-7.438
	c2.904-0.938,4.39,3.119,4.813,5.684l-2.533,2.531c0,0-0.072,1.582,3.395,5.048c3.463,3.464,5.047,3.394,5.047,3.394l2.943-2.941
	c1.86,0.392,5.588,2.761,5.588,2.761C28.922,27.158,26.551,29.468,22.864,29.079z"/>
</svg>
