<?xml version="1.0" encoding="iso-8859-1"?>
<!-- Generator: Adobe Illustrator 18.1.1, SVG Export Plug-In . SVG Version: 6.00 Build 0)  -->
<svg version="1.1" id="Layer_1" xmlns="http://www.w3.org/2000/svg" xmlns:xlink="http://www.w3.org/1999/xlink" x="0px" y="0px"
	 viewBox="0 0 58.775 87.894" style="enable-background:new 0 0 58.775 87.894;" xml:space="preserve">
<path style="fill:#231F20;" d="M55.371,0.251L58.679,0c0.012,0.153,1.112,15.465-4.478,33.2
	c-5.17,16.399-17.806,37.447-45.559,49.524c-0.299,0.131-0.625,0.054-0.854-0.16c-0.23-0.213-0.317-0.54-0.223-0.839l4.736-7.761
	L2.458,85.852c2.748-0.645,7.665-3.391,19.485-6.011l-0.832,3.085C6.711,85.013,1.059,87.858,1.009,87.87
	c-0.317,0.079-0.649-0.04-0.845-0.301c-0.196-0.26-0.219-0.612-0.056-0.895l14.723-19.766c0.206-0.361,0.65-0.507,1.032-0.341
	c0.381,0.166,0.576,0.593,0.451,0.989L9.634,80.56c26.534-11.155,38.026-32.064,42.996-47.795
	C58.141,15.322,55.382,0.401,55.371,0.251z"/>
</svg>
