<?xml version="1.0" encoding="iso-8859-1"?>
<!-- Generator: Adobe Illustrator 18.0.0, SVG Export Plug-In . SVG Version: 6.00 Build 0)  -->
<!DOCTYPE svg PUBLIC "-//W3C//DTD SVG 1.1//EN" "http://www.w3.org/Graphics/SVG/1.1/DTD/svg11.dtd">
<svg version="1.1" xmlns="http://www.w3.org/2000/svg" xmlns:xlink="http://www.w3.org/1999/xlink" x="0px" y="0px"
	 width="239.109px" height="276.099px" viewBox="0 0 239.109 276.099" style="enable-background:new 0 0 239.109 276.099;"
	 xml:space="preserve">
<g id="Guides" style="display:none;">
</g>
<g id="background">
	<g>
		<path style="fill:none;" d="M232.009,203H232v-41.214v-60.035V73.123l-18.784-10.847l-30.74-17.749L119.552,8.198L75.064,33.855
			L7,73.122v24.917v33.137v71.8l12.463,7.167l38.771,22.37l42.23,24.374l19.082,11.013l47.338-27.328l36.104-20.831L232.009,203z
			 M119.554,259.702l-11.53-6.657l-46.892-27.073l-43.136-24.847L14,198.875v-22.541V97.758V77.221L79.261,39.6l40.243-23.206
			l56.895,32.834l33.233,19.153L225,77.221v27.297v52.271V199h-0.045l-36.217,20.834l-18.752,10.788L119.554,259.702z"/>
		
			<linearGradient id="SVGID_1_" gradientUnits="userSpaceOnUse" x1="-57.2553" y1="-59.3195" x2="-56.8332" y2="-58.8974" gradientTransform="matrix(637 0 0 414 36423.2188 24502.1406)">
			<stop  offset="0" style="stop-color:#00A5B1"/>
			<stop  offset="1" style="stop-color:#00A1AE"/>
		</linearGradient>
		<polygon style="fill:url(#SVGID_1_);" points="176.423,49.228 119.553,16.394 79.36,39.6 119.274,93.601 		"/>
		
			<linearGradient id="SVGID_2_" gradientUnits="userSpaceOnUse" x1="-57.2261" y1="-59.3487" x2="-56.804" y2="-58.9266" gradientTransform="matrix(637 0 0 414 36423.2188 24502.1406)">
			<stop  offset="0" style="stop-color:#00A5B1"/>
			<stop  offset="1" style="stop-color:#00A1AE"/>
		</linearGradient>
		<polygon style="fill:url(#SVGID_2_);" points="119.553,8.198 182.478,44.527 188.534,39.825 119.553,0 70.867,28.109 
			75.114,33.855 		"/>
		
			<linearGradient id="SVGID_3_" gradientUnits="userSpaceOnUse" x1="-57.4838" y1="-59.2886" x2="-57.0615" y2="-58.8662" gradientTransform="matrix(306 0 0 425 17554.5996 25151.625)">
			<stop  offset="0" style="stop-color:#008591"/>
			<stop  offset="1" style="stop-color:#00A3B0"/>
		</linearGradient>
		<polygon style="fill:url(#SVGID_3_);" points="79.261,39.6 14,77.221 14,97.758 119.125,93.601 		"/>
		
			<linearGradient id="SVGID_4_" gradientUnits="userSpaceOnUse" x1="-57.4943" y1="-59.2769" x2="-57.0726" y2="-58.8552" gradientTransform="matrix(306 0 0 425 17554.5996 25151.625)">
			<stop  offset="0" style="stop-color:#008591"/>
			<stop  offset="1" style="stop-color:#00A3B0"/>
		</linearGradient>
		<polygon style="fill:url(#SVGID_4_);" points="7,98.039 7,73.122 75.064,33.855 70.842,28.109 0,69.023 0,69.072 1.872,98.244 		
			"/>
		
			<linearGradient id="SVGID_5_" gradientUnits="userSpaceOnUse" x1="-57.4371" y1="-59.9129" x2="-57.0144" y2="-59.4903" gradientTransform="matrix(278 0 0 469 15986.7295 28163.2656)">
			<stop  offset="0" style="stop-color:#008D99"/>
			<stop  offset="1" style="stop-color:#00A5B2"/>
		</linearGradient>
		<polygon style="fill:url(#SVGID_5_);" points="14,97.758 14,176.334 17.996,201.125 61.083,225.972 119.15,93.601 		"/>
		
			<linearGradient id="SVGID_6_" gradientUnits="userSpaceOnUse" x1="-57.5725" y1="-59.7767" x2="-57.1503" y2="-59.3546" gradientTransform="matrix(278 0 0 469 15986.7295 28163.2656)">
			<stop  offset="0" style="stop-color:#008D99"/>
			<stop  offset="1" style="stop-color:#00A5B2"/>
		</linearGradient>
		<polygon style="fill:url(#SVGID_6_);" points="19.513,210.143 20.93,219.159 55.387,239.053 58.259,232.513 		"/>
		
			<linearGradient id="SVGID_7_" gradientUnits="userSpaceOnUse" x1="-57.5127" y1="-59.8369" x2="-57.0905" y2="-59.4148" gradientTransform="matrix(278 0 0 469 15986.7295 28163.2656)">
			<stop  offset="0" style="stop-color:#008D99"/>
			<stop  offset="1" style="stop-color:#00A5B2"/>
		</linearGradient>
		<polygon style="fill:url(#SVGID_7_);" points="1.823,98.244 7,131.176 7,98.039 		"/>
		
			<linearGradient id="SVGID_8_" gradientUnits="userSpaceOnUse" x1="-57.5242" y1="-59.8662" x2="-57.102" y2="-59.4441" gradientTransform="matrix(334 0 0 469 19250.7305 28163.2656)">
			<stop  offset="0" style="stop-color:#008994"/>
			<stop  offset="1" style="stop-color:#00A1AD"/>
		</linearGradient>
		<polygon style="fill:url(#SVGID_8_);" points="119.274,93.601 61.132,225.972 108.024,253.045 173.306,219.818 		"/>
		
			<linearGradient id="SVGID_9_" gradientUnits="userSpaceOnUse" x1="-57.6366" y1="-59.7538" x2="-57.2144" y2="-59.3317" gradientTransform="matrix(334 0 0 469 19250.7305 28163.2656)">
			<stop  offset="0" style="stop-color:#008994"/>
			<stop  offset="1" style="stop-color:#00A1AD"/>
		</linearGradient>
		<polygon style="fill:url(#SVGID_9_);" points="58.259,232.513 55.387,239.053 92.93,260.728 100.477,256.887 		"/>
		
			<linearGradient id="SVGID_10_" gradientUnits="userSpaceOnUse" x1="-57.3985" y1="-60.5596" x2="-56.9764" y2="-60.1375" gradientTransform="matrix(334 0 0 401 19250.7305 24447.5469)">
			<stop  offset="0" style="stop-color:#00AAB8"/>
			<stop  offset="1" style="stop-color:#01A8B5"/>
		</linearGradient>
		<polygon style="fill:url(#SVGID_10_);" points="108.024,253.045 119.554,259.702 169.975,230.592 173.306,219.818 		"/>
		
			<linearGradient id="SVGID_11_" gradientUnits="userSpaceOnUse" x1="-57.4324" y1="-60.5258" x2="-57.0103" y2="-60.1037" gradientTransform="matrix(334 0 0 401 19250.7305 24447.5469)">
			<stop  offset="0" style="stop-color:#00AAB8"/>
			<stop  offset="1" style="stop-color:#01A8B5"/>
		</linearGradient>
		<polygon style="fill:url(#SVGID_11_);" points="166.888,240.572 119.553,267.9 100.477,256.887 92.93,260.728 119.553,276.099 
			163.802,250.552 		"/>
		
			<linearGradient id="SVGID_12_" gradientUnits="userSpaceOnUse" x1="-57.2265" y1="-59.3118" x2="-56.8044" y2="-58.8897" gradientTransform="matrix(151 0 0 888 8596.0361 52489.8438)">
			<stop  offset="0" style="stop-color:#009AA6"/>
			<stop  offset="1" style="stop-color:#01A1AE"/>
		</linearGradient>
		<polygon style="fill:url(#SVGID_12_);" points="0,69.072 0,104.137 1.922,98.244 		"/>
		
			<linearGradient id="SVGID_13_" gradientUnits="userSpaceOnUse" x1="-57.1472" y1="-59.9564" x2="-56.7247" y2="-59.5339" gradientTransform="matrix(223 0 0 463 12700.2275 27820)">
			<stop  offset="0" style="stop-color:#0196A2"/>
			<stop  offset="1" style="stop-color:#047F88"/>
		</linearGradient>
		<polygon style="fill:url(#SVGID_13_);" points="7,202.976 7,131.176 1.872,98.244 0,104.137 0,207.075 20.93,219.159 
			19.463,210.143 		"/>
		
			<linearGradient id="SVGID_14_" gradientUnits="userSpaceOnUse" x1="-57.1559" y1="-59.9482" x2="-56.7337" y2="-59.526" gradientTransform="matrix(223 0 0 463 12700.2275 27820)">
			<stop  offset="0" style="stop-color:#0196A2"/>
			<stop  offset="1" style="stop-color:#047F88"/>
		</linearGradient>
		<polygon style="fill:url(#SVGID_14_);" points="14,198.875 17.897,201.125 14,176.334 		"/>
		
			<linearGradient id="SVGID_15_" gradientUnits="userSpaceOnUse" x1="-57.6056" y1="-60.4701" x2="-57.1835" y2="-60.0479" gradientTransform="matrix(457 0 0 402 26472.5234 24505.5938)">
			<stop  offset="0" style="stop-color:#00939D"/>
			<stop  offset="1" style="stop-color:#03B9C6"/>
		</linearGradient>
		<polygon style="fill:url(#SVGID_15_);" points="166.888,240.572 163.802,250.552 217.265,219.686 202.991,219.729 		"/>
		
			<linearGradient id="SVGID_16_" gradientUnits="userSpaceOnUse" x1="-57.6055" y1="-60.4702" x2="-57.1834" y2="-60.048" gradientTransform="matrix(457 0 0 402 26472.5234 24505.5938)">
			<stop  offset="0" style="stop-color:#00939D"/>
			<stop  offset="1" style="stop-color:#03B9C6"/>
		</linearGradient>
		<polygon style="fill:url(#SVGID_16_);" points="173.306,219.818 169.975,230.592 188.715,219.772 		"/>
		
			<linearGradient id="SVGID_17_" gradientUnits="userSpaceOnUse" x1="-59.1065" y1="-60.3823" x2="-58.6844" y2="-59.9603" gradientTransform="matrix(137 0 0 299 8226.9834 18125.8281)">
			<stop  offset="0" style="stop-color:#14BCC9"/>
			<stop  offset="1" style="stop-color:#08BCCB"/>
		</linearGradient>
		<polygon style="fill:url(#SVGID_17_);" points="119.274,93.601 173.306,219.818 177.105,123.15 		"/>
		
			<linearGradient id="SVGID_18_" gradientUnits="userSpaceOnUse" x1="-57.9829" y1="-59.6676" x2="-57.5608" y2="-59.2455" gradientTransform="matrix(331 0 0 327 19285.7168 19522.0938)">
			<stop  offset="0" style="stop-color:#008B93"/>
			<stop  offset="1" style="stop-color:#00A1AD"/>
		</linearGradient>
		<polygon style="fill:url(#SVGID_18_);" points="177.105,123.15 209.598,68.382 176.423,49.228 119.274,93.601 		"/>
		
			<linearGradient id="SVGID_19_" gradientUnits="userSpaceOnUse" x1="-57.8828" y1="-59.7676" x2="-57.4607" y2="-59.3455" gradientTransform="matrix(331 0 0 327 19285.7168 19522.0938)">
			<stop  offset="0" style="stop-color:#008B93"/>
			<stop  offset="1" style="stop-color:#00A1AD"/>
		</linearGradient>
		<polygon style="fill:url(#SVGID_19_);" points="213.22,62.276 216.844,56.169 188.534,39.825 182.478,44.527 		"/>
		
			<linearGradient id="SVGID_20_" gradientUnits="userSpaceOnUse" x1="-58.2023" y1="-60.7896" x2="-57.7807" y2="-60.368" gradientTransform="matrix(333 0 0 229 19527.7266 14062.6641)">
			<stop  offset="0" style="stop-color:#05B6C5"/>
			<stop  offset="1" style="stop-color:#15BDCC"/>
		</linearGradient>
		<polygon style="fill:url(#SVGID_20_);" points="232,203 232.009,203 202.991,219.741 217.21,219.692 239,207.075 239,166.783 
			232,161.786 		"/>
		
			<linearGradient id="SVGID_21_" gradientUnits="userSpaceOnUse" x1="-58.2238" y1="-60.7684" x2="-57.8011" y2="-60.3456" gradientTransform="matrix(333 0 0 229 19527.7266 14062.6641)">
			<stop  offset="0" style="stop-color:#05B6C5"/>
			<stop  offset="1" style="stop-color:#15BDCC"/>
		</linearGradient>
		<polygon style="fill:url(#SVGID_21_);" points="173.306,219.818 188.715,219.834 224.955,199 225,199 225,156.789 177.151,123.15 
					"/>
		
			<linearGradient id="SVGID_22_" gradientUnits="userSpaceOnUse" x1="-58.618" y1="-59.6174" x2="-58.1955" y2="-59.1949" gradientTransform="matrix(254 0 0 327 15033.3691 19522.0938)">
			<stop  offset="0" style="stop-color:#00AEBC"/>
			<stop  offset="1" style="stop-color:#00B5C1"/>
		</linearGradient>
		<polygon style="fill:url(#SVGID_22_);" points="225,104.518 225,77.221 209.644,68.382 177.174,123.15 		"/>
		
			<linearGradient id="SVGID_23_" gradientUnits="userSpaceOnUse" x1="-58.5275" y1="-59.7076" x2="-58.1058" y2="-59.2859" gradientTransform="matrix(254 0 0 327 15033.3691 19522.0938)">
			<stop  offset="0" style="stop-color:#00AEBC"/>
			<stop  offset="1" style="stop-color:#00B5C1"/>
		</linearGradient>
		<polygon style="fill:url(#SVGID_23_);" points="232,73.123 232,101.751 239,98.983 239,69.023 216.789,56.169 213.189,62.276 		
			"/>
		
			<linearGradient id="SVGID_24_" gradientUnits="userSpaceOnUse" x1="-58.181" y1="-60.1363" x2="-57.7588" y2="-59.7141" gradientTransform="matrix(324 0 0 327 19023.6836 19750.0938)">
			<stop  offset="0" style="stop-color:#4AC4DA"/>
			<stop  offset="1" style="stop-color:#36C0D3"/>
		</linearGradient>
		<polygon style="fill:url(#SVGID_24_);" points="225,156.789 225,104.518 177.197,123.15 		"/>
		
			<linearGradient id="SVGID_25_" gradientUnits="userSpaceOnUse" x1="-58.1532" y1="-60.1641" x2="-57.7316" y2="-59.7425" gradientTransform="matrix(324 0 0 327 19023.6836 19750.0938)">
			<stop  offset="0" style="stop-color:#4AC4DA"/>
			<stop  offset="1" style="stop-color:#36C0D3"/>
		</linearGradient>
		<polygon style="fill:url(#SVGID_25_);" points="232,161.786 239,166.783 239,98.983 232,101.751 		"/>
	</g>
</g>
<g id="Lines-3">
	<g>
		<polygon style="opacity:0.2;fill:#FFFFFF;" points="75.722,33.503 71.475,27.757 70.258,28.46 74.505,34.206 		"/>
		<polygon style="opacity:0.2;fill:#FFFFFF;" points="0.646,68.636 0,69.023 0,79.688 1.178,97.575 1.111,97.578 1.207,98.186 
			0,101.886 0,106.388 1.635,101.225 7,135.67 7,126.683 2.634,98.911 7,98.738 7,97.341 2.524,97.52 		"/>
		<polygon style="opacity:0.2;fill:#FFFFFF;" points="14,180.829 17.219,200.676 18.724,201.574 14,171.841 		"/>
		<polygon style="opacity:0.2;fill:#FFFFFF;" points="18.736,209.694 20.153,218.71 21.707,219.608 20.29,210.592 		"/>
		<polygon style="opacity:0.2;fill:#FFFFFF;" points="217.448,56.518 216.239,55.82 212.616,61.927 213.825,62.625 		"/>
		<polygon style="opacity:0.2;fill:#FFFFFF;" points="189.187,40.202 187.882,39.448 181.825,44.15 183.131,44.904 		"/>
		<path style="opacity:0.2;fill:#FFFFFF;" d="M178.762,121.764l17.069-28.79l14.377-24.243l-1.212-0.698l-32.105,54.112
			l-0.432-0.304l-0.008,0.19l-29.023-14.829l-26.859-13.723l56.507-43.874l-1.306-0.754L119.56,92.495l-0.277-0.648l-0.163,0.371
			L79.968,39.248l-1.217,0.703l39.078,53.005L14,97.06v1.397l104.087-4.114l-28.13,64.155l-29.458,67.124l1.229,0.702L119.26,95.356
			l53.145,124.136l-65.102,33.137l1.443,0.833l63.407-32.272l-3.066,9.915l1.779-1.027l2.548-8.239l0.47,1.098l0.095-2.422
			l13.522-0.04l2.431-1.403l-15.676,0.047l0.207-0.67l-0.41,0.209l3.748-94.197L225,157.643v-1.707l-24.323-17.084l-22.038-15.524
			L225,105.267v-1.498l-15.874,6.169L178.762,121.764z M172.73,216.699L120.675,95.101l26.544,13.562l28.906,14.77l-0.654,1.103
			l0.895-0.349L172.73,216.699z"/>
		<polygon style="opacity:0.2;fill:#FFFFFF;" points="201.775,220.431 216.049,220.388 218.48,218.985 204.206,219.028 		"/>
		<polygon style="opacity:0.2;fill:#FFFFFF;" points="232,162.64 239,167.637 239,165.93 232,160.933 		"/>
		<polygon style="opacity:0.2;fill:#FFFFFF;" points="232,101.002 232,102.5 239,99.732 239,98.234 		"/>
		<polygon style="opacity:0.2;fill:#FFFFFF;" points="54.779,238.701 55.995,239.404 58.867,232.864 57.651,232.162 		"/>
		<polygon style="opacity:0.2;fill:#FFFFFF;" points="162.913,251.066 164.692,250.039 167.778,240.058 165.999,241.085 		"/>
		<polygon style="opacity:0.2;fill:#FFFFFF;" points="92.209,260.312 93.651,261.144 101.198,257.303 99.756,256.471 		"/>
	</g>
</g>
<g id="Lines-2">
	<path style="opacity:0.2;fill:#FFFFFF;" d="M0,153.657v-1.832l7-6.039v1.832L0,153.657z M239,80.736v-1.615l-7-4.131v1.615
		l0.027,0.045L239,80.736z M136.906,26.413l-2.985-1.723l-24.243-2.594l-2.051,1.184L136.906,26.413z M0,202.306v2.481l2.599,3.789
		l2.821,1.629L0,202.306z M148.068,16.462l-0.619,7.841l2.185,1.262l3.86-5.97l-1.211-0.699l-3.426,5.298l0.549-6.959
		L148.068,16.462z M239,136.202l-7,0.94v1.408l7-0.94V136.202z M27.913,214.993l29.691,25.34l6.647,3.838L34.56,218.83
		L27.913,214.993z M97.701,20.814l-11.979-1.282l-2.052,1.184l11.979,1.282L97.701,20.814z M7,197.229v-1.835l-7-6.059v1.835
		l6.196,5.33L7,197.229z M14,139.748v1.832L144.36,30.774l-1.234-0.741l-84.899,72.156L14,139.748z M83.473,158.202L225,139.49
		v-1.408l-9.773,1.274L14,165.969v1.409L83.473,158.202z M0,169.257l7-0.94v-1.409l-7,0.94V169.257z"/>
</g>
<g id="Lines-1">
	<g>
		<polygon style="opacity:0.3;fill:#FFFFFF;" points="0,171.154 0,176.395 3.922,190.588 1.639,188.64 3.431,191.25 0,190.068 
			0,191.545 1.977,192.226 0,192.428 0,193.831 3.041,193.521 2.946,193.602 4.691,193.371 4.821,193.839 5.015,193.632 7,196.596 
			7,193.299 6.798,193.127 7,193.106 7,190.069 5.534,191.358 		"/>
		<polygon style="opacity:0.3;fill:#FFFFFF;" points="101.63,10.348 80.29,22.668 23.011,60.216 0,75.301 0,76.97 22.003,62.546 		
			"/>
		<polygon style="opacity:0.3;fill:#FFFFFF;" points="119.553,0 118.895,0.38 120.064,0.295 		"/>
		<polygon style="opacity:0.3;fill:#FFFFFF;" points="223.056,59.755 219.281,57.576 197.539,53.223 201.314,55.402 		"/>
		<polygon style="opacity:0.3;fill:#FFFFFF;" points="0,94.257 7,95.017 7,93.613 0,92.853 		"/>
		<polygon style="opacity:0.3;fill:#FFFFFF;" points="174.485,31.714 173.024,30.87 165.295,34.607 166.757,35.451 		"/>
		<polygon style="opacity:0.3;fill:#FFFFFF;" points="116.895,1.838 122.688,10.008 125.585,11.681 117.956,0.922 115.452,2.367 
			114.774,10.957 116.242,10.11 		"/>
		<polygon style="opacity:0.3;fill:#FFFFFF;" points="232,146.536 239,139.709 239,137.772 232,144.6 		"/>
		<polygon style="opacity:0.3;fill:#FFFFFF;" points="232,94.624 232,99.473 239,75.856 239,71.007 		"/>
		<polygon style="opacity:0.3;fill:#FFFFFF;" points="232,181.801 239,187.209 239,185.455 232,180.047 		"/>
		<polygon style="opacity:0.3;fill:#FFFFFF;" points="35.495,219.37 65.187,244.711 71.835,248.549 42.144,223.209 		"/>
		<polygon style="opacity:0.3;fill:#FFFFFF;" points="14.351,207.163 23.669,220.74 26.473,222.359 17.154,208.781 		"/>
		<path style="opacity:0.3;fill:#FFFFFF;" d="M148.927,44.908l30.664,6.142l-3.781-2.179l-26.029-5.211l9.251-4.473l-1.462-0.844
			l-9.663,4.672l-0.242-0.459l-0.089,0.137l-12.15-17.133l-2.897-1.673l14.027,19.781l-1.128,0.546l1.031,0.207l-18.366,28.404
			l-19.137,29.596l6.607-83.722l-1.467,0.847l-6.791,84.802L14,94.372v1.404l92.255,9.861l-52.336,44.478L14,184.03v1.832
			l93.117-79.125l-0.035,1.076l1.162-1.759l49.537,28.812l51.584,30.007l-42.97,5.674L14,190.704v1.409l99.626-13.173l96.787-12.803
			l-17.478,51.184l1.85-1.061l16.832-49.205l0.044,0.077l0.249-0.669L225,176.394v-1.755l-11.697-8.873l0.324-0.046l-0.931-0.562
			L225,153.362v-1.937l-11.985,11.523L225,123.087v-4.848l-13.643,45.223L148.927,44.908z M109.247,105.009l0.486-0.414
			l-0.488-0.052l19.506-30.167l18.79-29.059l62.197,118.155L109.247,105.009z"/>
		<polygon style="opacity:0.3;fill:#FFFFFF;" points="185.974,237.752 187.812,236.691 191.305,226.476 189.467,227.537 		"/>
	</g>
</g>
<g id="Circules">
	<path style="opacity:0.77;fill:#FFFFFF;enable-background:new    ;" d="M0,189.663c0.555-0.352,1.212-0.562,1.922-0.562
		c1.964,0,3.556,1.567,3.556,3.499c0,1.932-1.592,3.499-3.556,3.499c-0.71,0-1.367-0.21-1.922-0.562V189.663z M114.252,3.06
		c0.589,0.427,1.31,0.687,2.098,0.687c1.964,0,3.556-1.567,3.556-3.5c0-0.016-0.005-0.03-0.005-0.046L119.553,0L114.252,3.06z
		 M104.488,104.616c0,1.933,1.592,3.5,3.556,3.5s3.556-1.567,3.556-3.5c0-1.933-1.592-3.5-3.556-3.5
		S104.488,102.683,104.488,104.616z M175.992,220.284c0-2.644-2.177-4.787-4.863-4.787c-2.686,0-4.863,2.143-4.863,4.787
		s2.177,4.787,4.863,4.787C173.815,225.071,175.992,222.928,175.992,220.284z M215.044,165.297c0-1.932-1.592-3.499-3.556-3.499
		s-3.556,1.567-3.556,3.499s1.592,3.499,3.556,3.499S215.044,167.229,215.044,165.297z"/>
</g>
<g id="cat_face">
	<g>
		<g>
			<g>
				<path style="fill:#FFFFFF;" d="M71.539,185.182l4.449,18.255l0.384,1.917l0.307-1.917l4.679-18.638h4.755L78.98,210.11h-4.91
					l-4.986-18.638l-0.307-1.457l-0.307,1.381l-4.986,18.715H58.5L51.29,184.8h4.832l4.679,18.638l0.307,1.917l0.383-1.917
					l4.525-18.255L71.539,185.182L71.539,185.182z"/>
				<path style="fill:#FFFFFF;" d="M91.634,204.664l-1.841,5.522h-4.909l9.127-25.311h4.909l9.127,25.311h-5.139l-6.289-18.868
					l-0.307-1.304l-0.307,1.381l-2.991,9.051l-0.383,0.69l0.537-0.077h2.685c0.537,0,0.92,0.153,1.304,0.383s0.69,0.537,0.997,0.844
					c0.307,0.383,0.537,0.767,0.69,1.15c0.23,0.46,0.383,0.844,0.46,1.227h-7.67V204.664z"/>
				<path style="fill:#FFFFFF;" d="M118.633,198.374v11.812H113.8v-11.198l-8.744-14.113h5.446L118.633,198.374z M121.701,184.875
					h5.369l-7.363,12.195c-0.23-0.307-0.46-0.69-0.767-1.15c-0.23-0.46-0.46-0.997-0.69-1.534c-0.153-0.537-0.23-1.15-0.307-1.764
					c0-0.614,0.153-1.227,0.46-1.764L121.701,184.875z"/>
				<path style="fill:#FFFFFF;" d="M143.867,192.008c0,1.15-0.307,2.301-0.92,3.528s-1.381,2.454-2.301,3.682
					c-0.92,1.227-1.918,2.378-2.915,3.528s-1.917,2.224-2.684,3.145l-0.537,0.614l0.767-0.077h9.051v3.835h-16.03v-2.071
					c0.307-0.767,0.844-1.611,1.457-2.454c0.614-0.844,1.381-1.764,2.148-2.685c0.767-0.92,1.611-1.841,2.378-2.838
					c0.844-0.92,1.534-1.918,2.224-2.838s1.227-1.764,1.687-2.684c0.46-0.844,0.614-1.611,0.614-2.378
					c0-1.15-0.383-1.994-1.15-2.531c-0.767-0.614-1.687-0.92-2.838-0.92c-0.537,0-1.15,0.077-1.917,0.23s-1.534,0.46-2.454,0.844
					l-1.227-3.221c1.151-0.537,2.224-0.92,3.221-1.15s1.917-0.307,2.685-0.307c1.381,0,2.531,0.153,3.605,0.46
					c1.074,0.307,1.994,0.767,2.761,1.304c0.767,0.614,1.381,1.304,1.764,2.071C143.637,190.014,143.867,190.934,143.867,192.008z"
					/>
				<path style="fill:#FFFFFF;" d="M159.59,210.646c-2.148,0-4.065-0.307-5.753-0.997c-1.687-0.69-3.068-1.611-4.219-2.761
					c-1.15-1.151-1.994-2.608-2.608-4.142c-0.614-1.611-0.92-3.298-0.92-5.139s0.307-3.528,0.92-5.139
					c0.614-1.611,1.534-2.991,2.684-4.142c1.151-1.15,2.608-2.148,4.219-2.838c1.687-0.69,3.528-0.997,5.676-0.997
					c0.997,0,1.994,0.077,2.991,0.307c0.997,0.153,2.071,0.46,3.145,0.92l-1.227,3.221c-0.997-0.307-1.917-0.537-2.608-0.614
					c-0.69-0.153-1.457-0.153-2.301-0.153c-1.381,0-2.608,0.307-3.605,0.844c-0.997,0.537-1.841,1.227-2.531,2.148
					c-0.69,0.92-1.15,1.918-1.534,3.068c-0.307,1.15-0.537,2.301-0.537,3.528s0.153,2.378,0.537,3.528
					c0.307,1.15,0.844,2.148,1.534,3.068s1.534,1.611,2.531,2.148c0.997,0.537,2.224,0.767,3.605,0.767
					c1.534,0,3.145-0.383,4.832-1.15l1.304,3.145c-1.074,0.537-2.071,0.92-3.145,1.227
					C161.585,210.493,160.588,210.646,159.59,210.646z"/>
				<path style="fill:#FFFFFF;" d="M177.692,210.646c-1.534,0-2.991-0.23-4.219-0.69c-1.227-0.46-2.301-1.074-3.221-1.917
					c-0.844-0.844-1.534-1.918-1.994-3.221s-0.69-2.761-0.69-4.372v-15.647h4.909v16.184c0,0.92,0.153,1.764,0.383,2.531
					s0.614,1.381,1.074,1.918s0.997,0.92,1.687,1.227c0.614,0.307,1.304,0.383,2.071,0.383s1.457-0.153,2.071-0.383
					c0.614-0.307,1.227-0.69,1.687-1.227c0.46-0.537,0.844-1.15,1.074-1.918c0.23-0.767,0.383-1.611,0.383-2.531v-16.184h4.909
					v15.647c0,1.534-0.23,2.915-0.69,4.219c-0.46,1.227-1.15,2.301-1.994,3.221c-0.844,0.92-1.917,1.611-3.221,2.071
					C180.683,210.416,179.226,210.646,177.692,210.646z"/>
			</g>
		</g>
		<path style="fill:#FFFFFF;" d="M119.016,167.771c27.152,0,58.906-12.195,62.127-43.412c0.69-6.98-4.219-35.359-25.004-58.906
			L137.654,89.46h-37.276L81.893,65.453C61.108,89,56.199,117.456,56.889,124.359C60.11,155.576,91.864,167.771,119.016,167.771"/>
		<g>
			<path d="M121.317,147.292l4.832-6.98c0.92-1.304,0.46-3.145-0.92-3.912c-1.841-0.997-3.912-1.534-6.136-1.534
				s-4.295,0.537-6.136,1.534c-1.457,0.767-1.841,2.608-0.92,3.912l4.832,6.98C117.866,148.903,120.243,148.903,121.317,147.292z"/>
			<g>
				<path d="M130.521,156.189c-4.986,0-9.434-2.915-11.505-7.21c-2.071,4.295-6.52,7.21-11.505,7.21
					c-3.068,0-5.983-1.074-8.36-3.068c-0.46-0.383-0.537-1.074-0.153-1.534c0.384-0.46,1.074-0.537,1.534-0.153
					c1.918,1.687,4.372,2.531,6.903,2.531c5.139,0,9.511-3.682,10.431-8.744c0.077-0.537,0.537-0.92,1.074-0.92
					c0.537,0,0.997,0.383,1.074,0.92c0.92,5.062,5.292,8.744,10.431,8.744c2.608,0,5.062-0.844,6.903-2.454
					c0.46-0.383,1.15-0.307,1.534,0.153c0.383,0.46,0.307,1.15-0.153,1.534C136.58,155.192,133.666,156.189,130.521,156.189z"/>
			</g>
			<path d="M180.069,113.237c-1.457,0.383-2.991,0.767-4.679,1.15c-15.033,3.452-35.052,5.369-56.375,5.369
				s-41.341-1.917-56.375-5.369c-1.687-0.383-3.221-0.767-4.679-1.15c-0.23,1.15-0.46,2.224-0.614,3.298
				c3.068,0.844,6.366,1.534,9.818,2.224c0.69,9.051,9.511,16.337,20.402,16.491c9.357,0.153,17.411-5.139,19.942-12.349
				c3.835,0.153,7.593,0.153,11.428,0.153c3.145,0,6.289-0.077,9.357-0.153c2.608,7.21,10.585,12.425,19.942,12.272
				c10.738-0.153,19.482-7.21,20.326-16.107c4.295-0.767,8.284-1.611,11.889-2.608C180.53,115.461,180.299,114.388,180.069,113.237z
				"/>
		</g>
	</g>
</g>
</svg>
